<svg width="113" height="115" xmlns="http://www.w3.org/2000/svg" xmlns:xlink="http://www.w3.org/1999/xlink" xml:space="preserve" overflow="hidden"><g transform="translate(-160 -437)"><g><g><g><g><path d="M197.331 504.184C196.465 504.811 194.989 505.57 193.815 505.996 193.164 506.222 191.806 506.755 190.779 507.194 188.143 508.286 185.971 508.727 183.216 508.74 180.632 508.74 178.434 508.326 177.822 507.713 177.528 507.422 177.515 507.327 177.769 507.395 178.182 507.487 178.355 506.915 178.129 506.29 177.956 505.849 178.315 505.276 178.581 505.544 179.101 506.062 182.869 506.395 185.107 506.13 188.516 505.73 191.391 504.585 194.149 502.493 195.375 501.561 195.693 501.242 196.638 499.924 197.224 499.097 198.025 497.766 198.45 496.967 199.209 495.515 199.209 495.515 198.316 495.423 197.105 495.276 194.056 495.342 192.751 495.528 191.06 495.754 188.781 496.513 187.357 497.272 185.572 498.259 183.907 498.724 182.549 498.645 181.11 498.538 178.368 497.606 177.756 496.994 177.45 496.687 177.396 496.554 177.596 496.594 178.022 496.7 178.329 496.155 178.129 495.636 177.875 494.956 178.287 494.809 179.647 495.076 182.709 495.715 184.227 495.476 187.757 493.89 191.512 492.185 193.456 491.707 196.759 491.681 198.211 491.667 199.382 491.639 199.382 491.586 199.356 491.134 198.65 489.522 198.064 488.511 196.186 485.355 193.442 483.837 189.608 483.81 187.158 483.81 184.96 484.249 182.189 485.315 181.031 485.754 179.673 486.287 179.18 486.486 178.329 486.807 177.675 486.712 178.074 486.313 178.274 486.087 178.368 485.087 178.195 484.916 178.114 484.835 177.943 484.822 177.835 484.874 177.701 484.929 177.741 484.808 177.956 484.596 178.142 484.383 179.18 483.876 180.259 483.437 181.325 483.01 182.47 482.45 182.802 482.224 183.802 481.546 185.758 480.759 187.318 480.428 190.38 479.761 194.002 480.454 196.68 482.172 198.316 483.251 200.834 485.98 201.593 487.539 203.511 491.426 203.484 495.767 201.539 499.47 201.021 500.416 198.316 503.467 197.331 504.184ZM162.575 494.596C162.456 494.479 162.456 494.287 162.575 494.17L215.869 440.876C215.986 440.757 216.178 440.757 216.295 440.876L269.923 494.504C270.041 494.621 270.041 494.813 269.923 494.929L216.628 548.224C216.511 548.343 216.319 548.343 216.202 548.224Z" fill="#EEE2BB" fill-rule="nonzero" fill-opacity="1"/><path d="M238.648 536.913C237.951 535.802 236.087 532.129 236.087 531.846 236.087 531.658 235.484 531.602 233.45 531.62 232.019 531.62 230.738 531.583 230.644 531.526 230.531 531.451 230.305 531.677 230.135 532.016 229.589 533.052 227.932 535.387 227.047 536.367 226.18 537.308 226.18 537.308 225.446 537.063 225.031 536.932 224.165 536.574 223.525 536.291 222.169 535.688 222.169 535.613 223.28 534.238 225.653 531.281 227.875 527.176 228.836 523.918 229.118 522.976 229.25 522.769 229.476 522.863 230.926 523.484 232.376 523.748 234.298 523.748 236.124 523.748 236.557 523.673 238.045 523.146 242.076 521.733 244.901 518.757 246.181 514.557 246.671 513.013 246.652 509.548 246.181 507.966 245.07 504.237 242.32 501.224 238.78 499.811 235.183 498.398 232.075 498.53 228.572 500.263 224.316 502.372 221.679 506.666 221.698 511.45 221.717 512.919 221.83 513.559 222.32 515.047 222.866 516.742 224.222 519.134 224.919 519.68 225.484 520.132 223.412 525.274 221.943 527.063 221.585 527.515 221.585 527.515 220.455 526.536 219.344 525.556 219.306 525.556 218.609 525.763 218.233 525.895 217.743 526.102 217.536 526.215 217.178 526.441 214.202 527.308 213.016 527.552 212.488 527.647 212.376 527.571 211.679 526.573 211.245 525.971 210.775 525.217 210.605 524.897 210.323 524.332 210.323 524.276 210.756 523.692 211.359 522.863 212.884 521.281 214.184 520.132 215.238 519.19 215.238 519.19 214.749 517.816 214.485 517.062 214.165 515.914 214.033 515.292 213.826 514.143 213.826 514.143 212.281 513.748 211.453 513.541 209.927 513.051 208.929 512.655 207.083 511.94 207.083 511.94 207.083 510.395 207.083 507.702 207.046 507.777 209.042 507.307 210.003 507.081 211.528 506.855 212.451 506.779 214.127 506.647 214.127 506.647 214.805 504.67 215.182 503.578 215.634 502.448 215.784 502.128 216.086 501.581 216.067 501.581 215.106 500.489 214.579 499.886 213.618 498.606 212.978 497.664 211.641 495.668 211.622 495.894 213.317 493.935 214.598 492.428 214.108 492.391 218.534 494.387 219.815 494.971 220.945 495.442 221.039 495.442 221.133 495.442 221.717 495.065 222.338 494.613 222.979 494.161 223.864 493.596 224.316 493.351 225.163 492.899 225.163 492.899 225.145 490.263 225.107 485.234 224.956 485.761 226.538 485.309 228.591 484.725 229.212 484.631 229.439 484.933 229.57 485.065 230.286 486.439 231.058 487.984 232.452 490.79 232.452 490.79 234.222 490.828 235.202 490.846 236.369 490.922 236.84 490.997 237.688 491.129 237.688 491.129 239.006 489.208 239.74 488.134 240.72 486.835 241.191 486.326 242.057 485.385 242.057 485.385 243.168 485.724 243.79 485.912 244.637 486.232 245.089 486.458 245.899 486.835 245.899 486.835 245.786 487.889 245.71 488.473 245.503 489.923 245.296 491.129 245.108 492.334 244.938 493.445 244.938 493.615 244.938 493.784 245.334 494.199 245.824 494.538 246.332 494.877 247.217 495.592 247.801 496.138 248.404 496.685 248.931 497.137 248.988 497.137 249.044 497.137 249.402 496.986 249.797 496.779 250.89 496.233 254.901 495.027 255.447 495.103 255.843 495.14 256.182 495.479 256.954 496.628 257.481 497.438 257.933 498.229 257.933 498.361 257.933 498.493 256.841 499.698 255.523 501.035 253.319 503.258 253.112 503.521 253.263 503.935 253.508 504.595 254.11 506.911 254.261 507.74 254.374 508.456 254.826 508.794 255.73 508.87 255.899 508.889 256.05 508.945 256.05 509.021 256.05 509.096 256.785 509.378 257.707 509.661 258.611 509.943 259.741 510.376 260.25 510.621 261.248 511.13 261.248 511.186 261.003 513.503 260.853 514.953 260.984 514.896 256.935 515.461 253.903 515.895 253.903 515.895 253.508 517.194 253.281 517.929 252.867 519.002 252.585 519.624 252.321 520.226 252.095 520.848 252.095 520.998 252.095 521.149 252.453 521.677 252.905 522.166 253.338 522.656 253.922 523.39 254.186 523.805 255.353 525.537 256.05 526.667 256.05 526.78 256.05 526.969 254.487 528.984 254.016 529.417 253.62 529.756 253.583 529.737 251.681 528.852 250.607 528.362 249.289 527.684 248.743 527.326 248.197 526.987 247.65 526.705 247.519 526.705 247.387 526.705 246.822 527.044 246.257 527.477 245.692 527.891 244.712 528.551 244.091 528.927 242.961 529.586 242.961 529.586 242.961 533.052 242.961 537.082 243.074 536.856 240.946 537.327 239.175 537.722 239.175 537.722 238.648 536.913Z" fill="#009DA6" fill-rule="nonzero" fill-opacity="1"/><path d="M193.561 484.97C190.585 484.443 187.93 483.219 185.482 481.279 183.391 479.641 181.489 477.211 181.112 475.761 180.999 475.346 180.679 474.367 180.396 473.595 179.907 472.258 179.888 472.032 179.888 468.793 179.888 464.969 180.02 464.141 181.319 460.694 182.11 458.547 182.694 457.398 183.994 455.327 184.615 454.31 186.725 451.372 186.819 451.372 186.819 451.372 186.837 451.937 186.856 452.652 186.875 454.875 188.137 456.927 190.698 458.961 192.224 460.167 194.823 461.73 195.312 461.73 195.463 461.73 195.953 461.9 196.386 462.088 196.838 462.295 198.137 462.879 199.268 463.368 201.98 464.574 203.844 465.817 205.577 467.549 207.253 469.245 208.044 470.751 208.477 473.03 208.816 474.819 208.665 476.646 208.025 478.737 207.648 479.942 206.613 481.882 206.368 481.863 206.292 481.863 205.765 481.298 205.2 480.62 203.844 478.981 201.829 477.267 200.096 476.288 199.324 475.855 197.441 475.026 195.896 474.443 192.996 473.369 192.13 472.842 190.698 471.26 189.719 470.186 188.627 468.51 188.627 468.096 188.627 467.907 188.419 467.342 188.175 466.853 187.93 466.363 187.628 465.61 187.497 465.177 187.176 464.16 186.743 464.103 186.743 465.082 186.743 465.949 187.384 468.698 187.628 468.868 187.723 468.924 188.156 469.697 188.57 470.582 189.926 473.369 191.357 474.574 194.465 475.478 197.704 476.439 200.831 478.68 203.637 482.07 204.823 483.501 204.823 483.501 202.544 484.236 199.305 485.253 196.386 485.498 193.561 484.97Z" fill="#009DA6" fill-rule="nonzero" fill-opacity="1"/><path d="M207.46 539.417C203.411 535.368 203.411 535.368 205.2 535.349 207.63 535.312 210.247 534.973 212.771 534.314 216.349 533.41 220.907 530.283 222.96 527.326 225.973 522.995 227.386 516.46 226.858 509.246 226.67 506.497 226.463 504.934 226.199 504.275 226.124 504.067 226.312 503.823 226.84 503.483 227.593 502.994 227.593 502.994 227.969 504.011 228.629 505.762 229.137 509.077 229.25 512.26 229.476 518.456 228.309 524.012 225.785 528.682 223.111 533.636 219.721 537.271 212.846 542.563 212.225 543.052 211.66 543.448 211.603 543.467 211.547 543.467 209.682 541.64 207.46 539.417Z" fill="#016C6D" fill-rule="nonzero" fill-opacity="1"/><path d="M232.885 520.904C232.885 520.565 234.392 518.456 235.126 517.797 235.522 517.439 236.482 516.78 237.236 516.347 238.008 515.895 238.912 515.273 239.251 514.953 239.947 514.294 240.512 512.919 240.682 511.45 240.776 510.414 240.776 510.414 240.437 511.45 239.721 513.635 238.987 514.501 237.047 515.499 235.522 516.271 233.789 517.797 232.941 519.115 232.603 519.661 232.226 520.113 232.113 520.113 232.019 520.113 231.623 519.454 231.228 518.663 230.663 517.458 230.55 517.006 230.55 515.989 230.55 513.409 232.301 511.28 235.88 509.491 238.629 508.117 240.644 505.216 239.872 503.747 239.477 503.031 239.966 503.333 240.795 504.331 242.377 506.195 243.093 507.231 243.865 508.813 244.637 510.395 244.656 510.452 244.656 512.411 244.656 514.369 244.637 514.426 243.846 516.026 242.867 518.023 241.737 519.078 239.477 520.17 237.895 520.923 237.838 520.942 235.39 521.017 233.789 521.074 232.885 521.036 232.885 520.904Z" fill="#016C6D" fill-rule="nonzero" fill-opacity="1"/><path d="M202.507 500.489C202.111 499.849 201.377 498.436 200.85 497.382 199.889 495.442 199.889 495.442 198.175 495.423 197.215 495.423 196.047 495.348 195.557 495.272 194.672 495.121 194.672 495.121 193.994 496.27 193.034 497.89 190.981 500.64 190.585 500.79 190.077 500.979 186.687 499.736 186.687 499.34 186.706 498.285 187.346 493.634 187.591 492.805 187.647 492.617 187.365 492.297 186.781 491.92 186.291 491.6 185.368 490.846 184.709 490.263 183.523 489.17 183.523 489.17 182.638 489.585 181.734 489.999 179.266 490.79 177.647 491.167 176.743 491.374 176.743 491.374 176.234 490.733 175.952 490.394 175.462 489.622 175.123 489.038 174.521 487.965 174.521 487.965 175.519 486.759 176.065 486.1 177.157 484.952 177.967 484.198 179.436 482.861 179.436 482.861 178.928 481.486 178.664 480.733 178.4 479.584 178.363 478.906 178.325 478.247 178.268 477.682 178.231 477.663 178.193 477.644 177.195 477.362 176.008 477.042 174.822 476.721 173.315 476.213 172.675 475.93 171.488 475.403 171.488 475.403 171.488 473.576 171.488 472.559 171.564 471.674 171.677 471.617 171.978 471.429 175.443 470.808 176.95 470.657 178.381 470.544 178.381 470.544 178.607 471.919 178.89 473.595 179.813 476.363 180.208 476.665 180.359 476.797 180.792 477.399 181.188 478.021 182.129 479.546 184.822 482.145 186.593 483.257 187.384 483.746 188.853 484.481 189.87 484.914 190.906 485.328 192.243 485.912 192.864 486.213 194.879 487.174 196.066 487.419 198.42 487.419 201.565 487.419 203.656 486.703 206.066 484.782 208.929 482.503 210.568 479.339 210.794 475.685 211.095 470.299 207.912 465.421 202.733 463.387 202.055 463.105 201.17 462.822 200.755 462.747 199.889 462.596 196.555 461.221 196.16 460.845 196.009 460.713 195.162 460.167 194.296 459.658 192.506 458.585 191.094 457.549 190.133 456.551 189.474 455.873 189.474 455.873 189.418 453.688 189.38 452.464 189.399 451.052 189.474 450.505 189.587 449.526 189.587 449.526 190.661 449.225 191.263 449.055 192.13 448.867 192.619 448.81 193.505 448.678 193.505 448.678 194.973 451.711 196.443 454.743 196.443 454.743 197.874 454.762 198.665 454.762 199.927 454.818 200.699 454.875 202.092 455.007 202.092 455.007 203.147 453.424 203.731 452.558 204.635 451.296 205.181 450.618 206.142 449.432 206.198 449.394 206.952 449.451 207.385 449.488 208.232 449.733 208.835 449.997 209.871 450.468 209.908 450.505 209.908 451.202 209.908 452.163 209.381 456.25 209.174 456.852 208.967 457.455 208.986 457.492 210.379 458.528 211.001 458.98 211.867 459.696 212.319 460.11 213.129 460.845 213.129 460.845 214.861 460.167 215.822 459.771 217.31 459.301 218.176 459.093 220.154 458.641 220.21 458.66 221.51 460.939 222.169 462.125 222.169 462.125 221.415 463.03 220.982 463.538 219.89 464.668 218.948 465.553 217.253 467.173 217.253 467.173 217.611 468.096 217.818 468.604 218.12 469.734 218.289 470.6 218.44 471.467 218.647 472.22 218.722 472.296 218.798 472.352 219.4 472.522 220.078 472.634 221.51 472.917 225.031 474.235 225.352 474.631 225.521 474.819 225.54 475.403 225.408 476.74 225.258 478.586 225.258 478.586 223.449 479 222.451 479.226 220.907 479.49 219.984 479.565 218.327 479.716 218.327 479.716 217.875 481.034 217.63 481.769 217.216 482.88 216.952 483.52 216.443 484.688 216.443 484.688 216.99 485.366 218.327 487.023 218.816 487.72 219.645 489.02 220.512 490.394 220.512 490.394 220.173 491.016 220.003 491.374 219.419 492.127 218.93 492.692 218.007 493.728 218.007 493.728 217.103 493.332 214.975 492.428 212.978 491.411 212.394 490.978 211.754 490.507 211.754 490.507 211.264 490.903 210.53 491.468 208.213 493.012 207.724 493.219 207.309 493.408 207.309 493.464 207.385 496.176 207.441 497.683 207.422 499.302 207.328 499.773 207.178 500.621 207.178 500.621 205.859 501.054 205.125 501.28 204.24 501.525 203.882 501.581 203.241 501.694 203.204 501.657 202.507 500.489Z" fill="#016C6D" fill-rule="nonzero" fill-opacity="1"/><path d="M177.572 461.504C176.234 459.564 176.234 459.564 177.44 458.095 178.118 457.304 178.758 456.645 178.89 456.645 179.022 456.664 179.549 456.89 180.095 457.172 181.056 457.681 181.056 457.681 180.491 458.905 180.189 459.583 179.737 460.845 179.474 461.711 179.229 462.596 178.984 463.331 178.946 463.368 178.928 463.406 178.287 462.559 177.572 461.504Z" fill="#016C6D" fill-rule="nonzero" fill-opacity="1"/></g></g></g></g></g></svg>